# xmcd CD database file
#
# Track frame offsets:
#	150
#	11087
#	23425
#	34602
#	44305
#	53825
#	66140
#	75932
#	86265
#	95982
#	106790
#	116165
#	127285
#	138182
#	147995
#
# Disc length: 2144 seconds
#
# Revision: 0
# Processed by: cddbd v1.5PL3 Copyright (c) Steve Scherf et al.
# Submitted via: CDex 1.50
#
DISCID=c1085e0f
DTITLE=Little Richard - Hear's Little Richard
DYEAR=1900
DGENRE=Blues
TTITLE0=Tutti Frutti
TTITLE1=True, Fine Mama
TTITLE2=Can't Believe You Wanna Leave
TTITLE3=Ready Teddy
TTITLE4=Baby
TTITLE5=Slippin' And Sliddin'
TTITLE6=Long Tall Sally
TTITLE7=Miss Ann
TTITLE8=Oh Why?
TTITLE9=Rip It Up
TTITLE10=Jenny Jenny
TTITLE11=She's Got It
TTITLE12=Baby (Take 1)
TTITLE13=Long Tall Sally (Take 5)
TTITLE14=Miss Ann (Take 7)
EXTD=
EXTT0=
EXTT1=
EXTT2=
EXTT3=
EXTT4=
EXTT5=
EXTT6=
EXTT7=
EXTT8=
EXTT9=
EXTT10=
EXTT11=
EXTT12=
EXTT13=
EXTT14=
PLAYORDER=
